<?xml version="1.0" encoding="utf-8"?>
<svg id="master-artboard" viewBox="0 0 542.1328735351562 782.9779052734375" version="1.1" xmlns="http://www.w3.org/2000/svg" x="0px" y="0px" style="enable-background:new 0 0 1400 980;" width="542.1328735351562px" height="782.9779052734375px"><rect id="ee-background" x="0" y="0" width="542.1328735351562" height="782.9779052734375" style="fill: white; fill-opacity: 0; pointer-events: none;"/>



<g transform="matrix(1, 0, 0, 1, -77.98794854565688, -104.66796633762817)"><path d="M 136.600006 444.600006 L 97.5 471.700012 L 114.199997 427" class="st3" style="fill: none; stroke: rgb(255, 255, 255); stroke-width: 2; stroke-linecap: round; stroke-linejoin: round; stroke-miterlimit: 10;" transform="matrix(2.651187995747054, 0, 0, 2.651187995747054, -160.99082922770987, -945.1288505347069)"/><g transform="matrix(2.651187995747054, 0, 0, 2.651187995747054, -160.99082922770987, -945.1288505347069)">
			<g>
				<path class="st1" d="M100.2,468.7c0.5-0.8,1.1-1.7,1.7-2.5" style="fill: none; stroke: rgb(255, 255, 255); stroke-width: 2; stroke-linecap: round; stroke-linejoin: round;"/>
				<path class="st4" d="M105.3,461.3c30.4-40.1,91.8-71,117.5-52.4c27.2,19.7-29.4,132.9-57.8,116.1&#10;&#9;&#9;&#9;&#9;&#9;c-28.4-16.8,41.7-116.6,99.4-90.6c56.6,25.5-53.2,180.3-129.1,247.1" style="fill: none; stroke: rgb(255, 255, 255); stroke-width: 2; stroke-linecap: round; stroke-linejoin: round; stroke-dasharray: 5.9827, 5.9827;"/>
				<path class="st1" d="M133.1,683.5c-0.8,0.7-1.5,1.3-2.3,2" style="fill: none; stroke: rgb(255, 255, 255); stroke-width: 2; stroke-linecap: round; stroke-linejoin: round;"/>
			</g>
		</g></g></svg>