<?xml version="1.0" encoding="utf-8"?>
<svg id="master-artboard" viewBox="0 0 1074.9443359375 729.6697998046875" version="1.1" xmlns="http://www.w3.org/2000/svg" x="0px" y="0px" width="1074.9443359375px" height="729.6697998046875px" enable-background="new 0 0 1400 980"><rect id="ee-background" x="0" y="0" width="1074.9443359375" height="729.6697998046875" style="fill: white; fill-opacity: 0; pointer-events: none;"/>
<g transform="matrix(0.7914552688598632, 0, 0, 0.7914552688598632, -16.813212942974246, -40.72523336369436)">
		<g>
			<linearGradient id="XMLID_6_" gradientUnits="userSpaceOnUse" x1="700.0002" y1="62.7264" x2="700.0002" y2="1088.1532">
				<stop offset="0" style="stop-color:#514148"/>
				<stop offset="1" style="stop-color:#F4BB3A"/>
			</linearGradient>
			<path d="M 0 0 H 1400 V 980 H 0 V 0 Z" id="XMLID_3_" fill="url(#XMLID_6_)"/>
		</g>
	</g><linearGradient id="SVGID_1_" gradientUnits="userSpaceOnUse" x1="699.0139" y1="298.2033" x2="699.0139" y2="925.9965">
		<stop offset="0" style="stop-color:#514148"/>
		<stop offset="1" style="stop-color:#F4BB3A"/>
	</linearGradient><path fill="url(#SVGID_1_)" d="M577,461c0,0-58,26-142.6,0S222.1,336.9,222.1,336.9L187,348.6l-98-88.8l-68,78.9v521.1h1356V716&#10;&#9;&#9;C977.1,697.1,577,461,577,461z" transform="matrix(0.7914552688598632, 0, 0, 0.7914552688598632, -16.813212942974246, -40.72523336369436)"/><linearGradient id="SVGID_2_" gradientUnits="userSpaceOnUse" x1="521.4933" y1="327.0887" x2="521.4933" y2="1036.9501">
			<stop offset="0" style="stop-color:#514148"/>
			<stop offset="1" style="stop-color:#F4BB3A"/>
		</linearGradient><path d="M 886.2999877929688 571.2000122070312 L 854 722 L 814.2000122070312 571.2000122070312 L 771 742.7000122070312 L 738.2999877929688 637 L 722.9000244140625 689.2999877929688 L 706.7000122070312 637 L 682.5999755859375 718.7999877929688 L 648 552.2999877929688 L 611.7000122070312 735.5 L 572.7000122070312 547.7999877929688 L 559.5999755859375 613.7000122070312 L 548.4000244140625 571.2000122070312 L 504.3999938964844 745.5999755859375 L 463.6000061035156 590.7999877929688 L 447.3999938964844 655.0999755859375 L 430.3999938964844 590.7999877929688 L 404.3999938964844 694.0999755859375 L 371.70001220703125 511.70001220703125 L 328.6000061035156 763.2000122070312 L 273 552.2999877929688 L 233.5 708.9000244140625 L 206.6999969482422 607.4000244140625 L 181.10000610351562 708.9000244140625 L 154.39999389648438 607.4000244140625 L 103.19999694824219 810.4000244140625 L 155.5 810.4000244140625 L 207.89999389648438 810.4000244140625 L 260.29998779296875 810.4000244140625 L 320.5 810.4000244140625 L 341.1000061035156 810.4000244140625 L 375.1000061035156 810.4000244140625 L 408.20001220703125 810.4000244140625 L 425.29998779296875 810.4000244140625 L 488.1000061035156 810.4000244140625 L 488.3999938964844 810.4000244140625 L 521.5 810.4000244140625 L 596.7999877929688 810.4000244140625 L 611.5 810.4000244140625 L 655.5 810.4000244140625 L 687.0999755859375 810.4000244140625 L 701.5999755859375 810.4000244140625 L 753.9000244140625 810.4000244140625 L 760.2999877929688 810.4000244140625 L 791.9000244140625 810.4000244140625 L 835.0999755859375 810.4000244140625 L 877.2999877929688 810.4000244140625 L 939.7999877929688 810.4000244140625 Z" fill="url(#SVGID_2_)" transform="matrix(0.7914552688598632, 0, 0, 0.7914552688598632, -16.813212942974246, -40.72523336369436)"/><linearGradient id="SVGID_3_" gradientUnits="userSpaceOnUse" x1="1076.6184" y1="427.1176" x2="1076.6184" y2="948.9447">
			<stop offset="0" style="stop-color:#514148"/>
			<stop offset="1" style="stop-color:#F4BB3A"/>
		</linearGradient><path d="M 1351.9000244140625 606.5 L 1327.5 717.4000244140625 L 1297.5 606.5 L 1264.9000244140625 732.5999755859375 L 1240.199951171875 655 L 1228.5999755859375 693.4000244140625 L 1216.4000244140625 655 L 1198.199951171875 715.0999755859375 L 1172.0999755859375 592.7000122070312 L 1144.699951171875 727.4000244140625 L 1115.300048828125 589.4000244140625 L 1105.4000244140625 637.7999877929688 L 1096.9000244140625 606.5 L 1063.800048828125 734.7999877929688 L 1032.9000244140625 621 L 1020.7000122070312 668.2000122070312 L 1007.9000244140625 621 L 988.2999877929688 696.9000244140625 L 963.5999755859375 562.7999877929688 L 931.0999755859375 747.7000122070312 L 889.0999755859375 592.7000122070312 L 859.2999877929688 707.7999877929688 L 839.0999755859375 633.2000122070312 L 819.7999877929688 707.7999877929688 L 799.5999755859375 633.2000122070312 L 761 782.4000244140625 L 800.5 782.4000244140625 L 840 782.4000244140625 L 879.5 782.4000244140625 L 925 782.4000244140625 L 940.5 782.4000244140625 L 966.0999755859375 782.4000244140625 L 991.2000122070312 782.4000244140625 L 1004 782.4000244140625 L 1051.4000244140625 782.4000244140625 L 1051.5999755859375 782.4000244140625 L 1076.699951171875 782.4000244140625 L 1133.5 782.4000244140625 L 1144.5999755859375 782.4000244140625 L 1177.800048828125 782.4000244140625 L 1201.5999755859375 782.4000244140625 L 1212.5 782.4000244140625 L 1252 782.4000244140625 L 1256.800048828125 782.4000244140625 L 1280.5999755859375 782.4000244140625 L 1313.199951171875 782.4000244140625 L 1345.0999755859375 782.4000244140625 L 1392.300048828125 782.4000244140625 Z" fill="url(#SVGID_3_)" transform="matrix(0.7914552688598632, 0, 0, 0.7914552688598632, -16.813212942974246, -40.72523336369436)"/><linearGradient id="SVGID_4_" gradientUnits="userSpaceOnUse" x1="399.1296" y1="536.7738" x2="399.1296" y2="959.9863">
			<stop offset="0" style="stop-color:#514148"/>
			<stop offset="1" style="stop-color:#F4BB3A"/>
		</linearGradient><path d="M 733.7000122070312 558.7000122070312 L 704.0999755859375 742.2999877929688 L 667.5999755859375 558.7000122070312 L 627.9000244140625 767.5999755859375 L 598 638.9000244140625 L 583.7999877929688 702.5999755859375 L 569 638.9000244140625 L 546.9000244140625 738.5 L 515.2000122070312 535.7999877929688 L 481.8999938964844 758.9000244140625 L 446.1000061035156 530.2999877929688 L 434.1000061035156 610.5999755859375 L 423.79998779296875 558.7000122070312 L 383.5 771.0999755859375 L 346 582.5999755859375 L 331.20001220703125 660.9000244140625 L 315.6000061035156 582.5999755859375 L 291.70001220703125 708.4000244140625 L 261.70001220703125 486.29998779296875 L 222.1999969482422 792.5 L 171.1999969482422 535.7999877929688 L 135 726.4000244140625 L 110.4000015258789 602.7999877929688 L 86.9000015258789 726.4000244140625 L 62.400001525878906 602.7999877929688 L 15.399999618530273 850 L 63.5 850 L 111.5 850 L 159.5 850 L 214.8000030517578 850 L 233.60000610351562 850 L 264.79998779296875 850 L 295.20001220703125 850 L 310.8999938964844 850 L 368.5 850 L 368.70001220703125 850 L 399.20001220703125 850 L 468.20001220703125 850 L 481.70001220703125 850 L 522.0999755859375 850 L 551 850 L 564.2999877929688 850 L 612.2999877929688 850 L 618.0999755859375 850 L 647.0999755859375 850 L 686.7999877929688 850 L 725.5 850 L 782.7999877929688 850 Z" fill="url(#SVGID_4_)" transform="matrix(0.7914552688598632, 0, 0, 0.7914552688598632, -16.813212942974246, -40.72523336369436)"/><linearGradient id="SVGID_5_" gradientUnits="userSpaceOnUse" x1="1047.7156" y1="595.7927" x2="1047.7156" y2="991.9346">
			<stop offset="0" style="stop-color:#514148"/>
			<stop offset="1" style="stop-color:#F4BB3A"/>
		</linearGradient><path d="M 1354.9000244140625 638.7999877929688 L 1327.699951171875 771.9000244140625 L 1294.199951171875 638.7999877929688 L 1257.800048828125 790.2000122070312 L 1230.300048828125 696.9000244140625 L 1217.300048828125 743.0999755859375 L 1203.699951171875 696.9000244140625 L 1183.4000244140625 769.0999755859375 L 1154.300048828125 622.2000122070312 L 1123.699951171875 783.9000244140625 L 1090.9000244140625 618.2000122070312 L 1079.800048828125 676.4000244140625 L 1070.4000244140625 638.7999877929688 L 1033.4000244140625 792.7999877929688 L 999 656.0999755859375 L 985.2999877929688 712.9000244140625 L 971 656.0999755859375 L 949.0999755859375 747.2999877929688 L 921.5999755859375 586.2999877929688 L 885.2999877929688 808.2999877929688 L 838.4000244140625 622.2000122070312 L 805.2000122070312 760.4000244140625 L 782.5999755859375 670.7999877929688 L 761.0999755859375 760.4000244140625 L 738.5 670.7999877929688 L 695.4000244140625 850 L 739.5 850 L 783.5999755859375 850 L 827.7000122070312 850 L 878.5 850 L 895.7999877929688 850 L 924.4000244140625 850 L 952.2999877929688 850 L 966.7000122070312 850 L 1019.5999755859375 850 L 1019.7999877929688 850 L 1047.800048828125 850 L 1111.199951171875 850 L 1123.5 850 L 1160.5999755859375 850 L 1187.199951171875 850 L 1199.4000244140625 850 L 1243.4000244140625 850 L 1248.800048828125 850 L 1275.4000244140625 850 L 1311.800048828125 850 L 1347.4000244140625 850 L 1400 850 Z" fill="url(#SVGID_5_)" transform="matrix(0.7914552688598632, 0, 0, 0.7914552688598632, -16.813212942974246, -40.72523336369436)"/><path d="M 21 820.700012 H 1377 V 975.100006 H 21 V 820.700012 Z" fill="#8B717B" transform="matrix(0.7914552688598632, 0, 0, 0.7914552688598632, -16.813212942974246, -40.72523336369436)"/><path fill="#F8DB94" d="M309,838.6c0,0,4.2-0.1,11.9-0.2c7.8-0.1,19.2-0.3,33.7-0.5c7.3-0.1,15.3-0.2,24.1-0.3&#10;&#9;&#9;&#9;c8.8-0.1,18.2-0.2,28.3-0.2c20.2-0.2,43.1-0.3,68-0.4c24.9,0,51.9-0.2,80.4-0.1c28.5,0.1,58.6,0.4,89.8,0.7&#10;&#9;&#9;&#9;c31.1,0.3,63.3,0.5,96,0.5c32.7,0,65.9-0.2,99.1-0.5c16.6-0.1,33.2-0.3,49.7-0.4c8.3-0.1,16.5-0.1,24.8-0.2&#10;&#9;&#9;&#9;c8.2,0,16.4-0.1,24.6-0.1c32.7-0.1,64.9-0.2,96-0.3c31.1-0.1,61.2-0.1,89.8,0c28.5,0.1,55.5,0.2,80.4,0.3&#10;&#9;&#9;&#9;c24.9,0.2,47.7,0.3,68,0.5c10.1,0.1,19.6,0.2,28.3,0.3c8.8,0.1,16.8,0.2,24.1,0.3c14.5,0.2,25.9,0.3,33.7,0.4&#10;&#9;&#9;&#9;c7.8,0.1,11.9,0.2,11.9,0.2v0.4c0,0-4.2,0.1-11.9,0.2c-7.8,0.1-19.2,0.3-33.7,0.4c-7.3,0.1-15.3,0.2-24.1,0.3&#10;&#9;&#9;&#9;c-8.8,0.1-18.2,0.2-28.3,0.3c-20.2,0.2-43.1,0.3-68,0.5c-24.9,0.1-51.9,0.3-80.4,0.3c-28.5,0.1-58.6,0.1-89.8,0&#10;&#9;&#9;&#9;c-31.1-0.1-63.3-0.2-96-0.3c-8.2,0-16.4-0.1-24.6-0.1c-8.2-0.1-16.5-0.1-24.8-0.2c-16.5-0.1-33.1-0.3-49.7-0.4&#10;&#9;&#9;&#9;c-33.2-0.3-66.4-0.5-99.1-0.5c-32.7,0-64.9,0.2-96,0.5c-31.1,0.3-61.2,0.6-89.8,0.7c-28.5,0.1-55.5,0-80.4-0.1&#10;&#9;&#9;&#9;c-24.9-0.1-47.7-0.2-68-0.4c-10.1-0.1-19.6-0.2-28.3-0.2c-8.8-0.1-16.8-0.2-24.1-0.3c-14.5-0.2-25.9-0.3-33.7-0.5&#10;&#9;&#9;&#9;c-7.8-0.1-11.9-0.2-11.9-0.2V838.6z" transform="matrix(0.7914552688598632, 0, 0, 0.7914552688598632, -16.813212942974246, -40.72523336369436)"/><path fill="#F8DB94" d="M392.6,845.6c0,0,14.2-0.3,39-0.7c6.2-0.1,13.1-0.2,20.5-0.3c7.5-0.1,15.6-0.2,24.2-0.2&#10;&#9;&#9;&#9;c17.3-0.2,36.8-0.3,58-0.4c21.3-0.1,44.3-0.2,68.7-0.1c24.4,0.1,50.1,0.4,76.7,0.7c26.6,0.3,54.1,0.5,82,0.5&#10;&#9;&#9;&#9;c27.9,0,56.3-0.2,84.6-0.5c14.2-0.1,28.4-0.3,42.5-0.4c7.1-0.1,14.1-0.1,21.1-0.2c7,0,14-0.1,21-0.1c27.9-0.1,55.4-0.2,82-0.3&#10;&#9;&#9;&#9;c26.6-0.1,52.3-0.1,76.7,0c24.4,0.1,47.4,0.2,68.7,0.3c21.3,0.2,40.8,0.3,58,0.5c8.6,0.1,16.7,0.2,24.2,0.3&#10;&#9;&#9;&#9;c7.5,0.1,14.3,0.2,20.5,0.3c12.4,0.2,22.2,0.3,28.8,0.4c6.6,0.1,10.2,0.2,10.2,0.2v0.4c0,0-3.5,0.1-10.2,0.2&#10;&#9;&#9;&#9;c-6.6,0.1-16.4,0.3-28.8,0.4c-6.2,0.1-13.1,0.2-20.5,0.3c-7.5,0.1-15.6,0.2-24.2,0.3c-17.3,0.2-36.8,0.3-58,0.5&#10;&#9;&#9;&#9;c-21.3,0.1-44.3,0.3-68.7,0.3c-24.4,0.1-50.1,0.1-76.7,0c-26.6-0.1-54.1-0.2-82-0.3c-7,0-14-0.1-21-0.1c-7-0.1-14.1-0.1-21.1-0.2&#10;&#9;&#9;&#9;c-14.1-0.1-28.3-0.3-42.5-0.4c-28.4-0.3-56.7-0.5-84.6-0.5c-27.9-0.1-55.4,0.2-82,0.5c-26.6,0.3-52.3,0.6-76.7,0.7&#10;&#9;&#9;&#9;c-24.4,0.1-47.4,0-68.7-0.1c-21.3-0.1-40.8-0.2-58-0.4c-8.6-0.1-16.7-0.2-24.2-0.2c-7.5-0.1-14.3-0.2-20.5-0.3&#10;&#9;&#9;&#9;c-24.8-0.3-39-0.7-39-0.7V845.6z" transform="matrix(0.7914552688598632, 0, 0, 0.7914552688598632, -16.813212942974246, -40.72523336369436)"/><path fill="#F8DB94" d="M518,852.6c0,0,9.2-0.3,25.4-0.7c4-0.1,8.5-0.2,13.4-0.3c4.9-0.1,10.1-0.2,15.8-0.2&#10;&#9;&#9;&#9;c11.3-0.2,24-0.3,37.8-0.4c13.9-0.1,28.9-0.2,44.7-0.1c15.9,0.1,32.6,0.4,49.9,0.7c17.3,0.3,35.2,0.5,53.4,0.5&#10;&#9;&#9;&#9;c18.2,0,36.7-0.2,55.1-0.5c9.2-0.1,18.5-0.3,27.7-0.4c4.6-0.1,9.2-0.1,13.8-0.2c4.6,0,9.1-0.1,13.7-0.1&#10;&#9;&#9;&#9;c18.2-0.1,36.1-0.2,53.4-0.3c17.3-0.1,34.1-0.1,49.9,0c15.9,0.1,30.9,0.2,44.7,0.3c13.9,0.2,26.6,0.3,37.8,0.5&#10;&#9;&#9;&#9;c5.6,0.1,10.9,0.2,15.8,0.3c4.9,0.1,9.3,0.2,13.4,0.3c8.1,0.2,14.4,0.3,18.8,0.4c4.3,0.1,6.6,0.2,6.6,0.2v0.4c0,0-2.3,0.1-6.6,0.2&#10;&#9;&#9;&#9;c-4.3,0.1-10.7,0.3-18.8,0.4c-4,0.1-8.5,0.2-13.4,0.3c-4.9,0.1-10.1,0.2-15.8,0.3c-11.3,0.2-24,0.3-37.8,0.5&#10;&#9;&#9;&#9;c-13.9,0.1-28.9,0.3-44.7,0.3c-15.9,0.1-32.6,0.1-49.9,0c-17.3-0.1-35.2-0.2-53.4-0.3c-4.5,0-9.1-0.1-13.7-0.1&#10;&#9;&#9;&#9;c-4.6-0.1-9.2-0.1-13.8-0.2c-9.2-0.1-18.4-0.3-27.7-0.4c-18.5-0.3-36.9-0.5-55.1-0.5c-18.2,0-36.1,0.2-53.4,0.5&#10;&#9;&#9;&#9;c-17.3,0.3-34.1,0.6-49.9,0.7c-15.9,0.1-30.9,0-44.7-0.1c-13.9-0.1-26.6-0.2-37.8-0.4c-5.6-0.1-10.9-0.2-15.8-0.2&#10;&#9;&#9;&#9;c-4.9-0.1-9.3-0.2-13.4-0.3c-16.2-0.3-25.4-0.7-25.4-0.7V852.6z" transform="matrix(0.7914552688598632, 0, 0, 0.7914552688598632, -16.813212942974246, -40.72523336369436)"/><path fill="#F8DB94" d="M434.4,859.6c0,0,6.2-0.3,16.9-0.7c10.8-0.3,26.2-0.7,44.6-0.9c9.2-0.1,19.2-0.2,29.8-0.1&#10;&#9;&#9;&#9;c10.6,0.1,21.7,0.4,33.3,0.7c11.5,0.3,23.5,0.5,35.6,0.5c12.1,0,24.4-0.2,36.7-0.5c12.3-0.3,24.6-0.6,36.7-0.7&#10;&#9;&#9;&#9;c12.1-0.1,24-0.2,35.6-0.3c11.5-0.1,22.7-0.1,33.3,0c10.6,0.1,20.6,0.2,29.8,0.3c9.2,0.1,17.7,0.3,25.2,0.5&#10;&#9;&#9;&#9;c7.5,0.2,14,0.4,19.4,0.5c10.8,0.3,16.9,0.6,16.9,0.6v0.4c0,0-6.2,0.3-16.9,0.6c-5.4,0.2-11.9,0.3-19.4,0.5&#10;&#9;&#9;&#9;c-7.5,0.2-16,0.3-25.2,0.5c-9.2,0.1-19.2,0.2-29.8,0.3c-10.6,0.1-21.7,0.1-33.3,0c-11.5-0.1-23.5-0.2-35.6-0.3&#10;&#9;&#9;&#9;c-12.1-0.1-24.4-0.4-36.7-0.7c-12.3-0.3-24.6-0.5-36.7-0.5c-12.1,0-24,0.2-35.6,0.5c-11.5,0.3-22.7,0.6-33.3,0.7&#10;&#9;&#9;&#9;c-10.6,0.1-20.6,0-29.8-0.1c-18.5-0.2-33.9-0.5-44.6-0.9c-10.8-0.3-16.9-0.7-16.9-0.7V859.6z" transform="matrix(0.7914552688598632, 0, 0, 0.7914552688598632, -16.813212942974246, -40.72523336369436)"/><path fill="#F8DB94" d="M750.8,870.1c0,0,6.6-0.3,18.2-0.7c11.6-0.3,28.1-0.7,48-0.9c9.9-0.1,20.7-0.2,32.1-0.1&#10;&#9;&#9;&#9;c11.4,0.1,23.4,0.4,35.8,0.7c12.4,0.3,25.3,0.5,38.3,0.5c13,0,26.3-0.2,39.5-0.5c13.2-0.3,26.5-0.6,39.5-0.7&#10;&#9;&#9;&#9;c13-0.1,25.9-0.2,38.3-0.3c12.4-0.1,24.4-0.1,35.8,0c11.4,0.1,22.1,0.2,32.1,0.3c9.9,0.1,19,0.3,27.1,0.5&#10;&#9;&#9;&#9;c8.1,0.2,15.1,0.4,20.9,0.5c11.6,0.3,18.2,0.6,18.2,0.6v0.4c0,0-6.6,0.3-18.2,0.6c-5.8,0.2-12.8,0.3-20.9,0.5&#10;&#9;&#9;&#9;c-8.1,0.2-17.2,0.3-27.1,0.5c-9.9,0.1-20.7,0.2-32.1,0.3c-11.4,0.1-23.4,0.1-35.8,0c-12.4-0.1-25.3-0.2-38.3-0.3&#10;&#9;&#9;&#9;c-13-0.1-26.3-0.4-39.5-0.7c-13.2-0.3-26.5-0.5-39.5-0.5c-13,0-25.9,0.2-38.3,0.5c-12.4,0.3-24.4,0.6-35.8,0.7&#10;&#9;&#9;&#9;c-11.4,0.1-22.1,0-32.1-0.1c-19.9-0.2-36.4-0.5-48-0.9c-11.6-0.3-18.2-0.7-18.2-0.7V870.1z" transform="matrix(0.7914552688598632, 0, 0, 0.7914552688598632, -16.813212942974246, -40.72523336369436)"/><path fill="#F8DB94" d="M900.1,859.6c0,0,6.1-0.3,16.7-0.7c10.6-0.3,25.8-0.7,44-0.9c9.1-0.1,18.9-0.2,29.4-0.1&#10;&#9;&#9;&#9;c10.4,0.1,21.4,0.4,32.8,0.7c11.4,0.3,23.1,0.5,35.1,0.5c11.9,0,24.1-0.2,36.2-0.5c12.1-0.3,24.3-0.6,36.2-0.7&#10;&#9;&#9;&#9;c11.9-0.1,23.7-0.2,35.1-0.3c11.4-0.1,22.4-0.1,32.8,0c10.4,0.1,20.3,0.2,29.4,0.3c9.1,0.1,17.4,0.3,24.8,0.5&#10;&#9;&#9;&#9;c7.4,0.2,13.8,0.4,19.1,0.5c10.6,0.3,16.7,0.6,16.7,0.6v0.4c0,0-6.1,0.3-16.7,0.6c-5.3,0.2-11.7,0.3-19.1,0.5&#10;&#9;&#9;&#9;c-7.4,0.2-15.7,0.3-24.8,0.5c-9.1,0.1-18.9,0.2-29.4,0.3c-10.4,0.1-21.4,0.1-32.8,0c-11.4-0.1-23.1-0.2-35.1-0.3&#10;&#9;&#9;&#9;c-11.9-0.1-24.1-0.4-36.2-0.7c-12.1-0.3-24.3-0.5-36.2-0.5c-11.9,0-23.7,0.2-35.1,0.5c-11.4,0.3-22.4,0.6-32.8,0.7&#10;&#9;&#9;&#9;c-10.4,0.1-20.3,0-29.4-0.1c-18.2-0.2-33.3-0.5-44-0.9c-10.6-0.3-16.7-0.7-16.7-0.7V859.6z" transform="matrix(0.7914552688598632, 0, 0, 0.7914552688598632, -16.813212942974246, -40.72523336369436)"/><path fill="#6A4542" d="M1159,900.8c-313.8,0-568.2-18.3-568.2-40.8c0-18.7,174.4-34.4,412.5-39.3H15.4V975H1377v-77.4&#10;&#9;&#9;&#9;C1309.9,899.7,1236.3,900.8,1159,900.8z" transform="matrix(0.7914552688598632, 0, 0, 0.7914552688598632, -16.813212942974246, -40.72523336369436)"/><path fill="#6A4542" d="M1377,822.2v-1.6h-58.4C1338.6,821.1,1358.1,821.6,1377,822.2z" transform="matrix(0.7914552688598632, 0, 0, 0.7914552688598632, -16.813212942974246, -40.72523336369436)"/><path fill="#F9A01B" d="M195.5,698C62.4,724,17.6,899.1,17.6,899.1h287.9L195.5,698z" transform="matrix(0.7914552688598632, 0, 0, 0.7914552688598632, -16.813212942974246, -40.72523336369436)"/><path fill="#6A4542" d="M195.5,698C62.4,724,17.6,899.1,17.6,899.1l125.4,8.3L195.5,698z" transform="matrix(0.7914552688598632, 0, 0, 0.7914552688598632, -16.813212942974246, -40.72523336369436)"/><path d="M 195.5 698 L 222.6999969482422 899.0999755859375 L 248.10000610351562 899.0999755859375 Z" fill="#855914" transform="matrix(0.7914552688598632, 0, 0, 0.7914552688598632, -16.813212942974246, -40.72523336369436)"/><g transform="matrix(0.7914552688598632, 0, 0, 0.7914552688598632, -16.813212942974246, -40.72523336369436)">
			<path d="M 840.299988 179.899994 A 3 1.8 0 0 1 837.299988 181.699994 A 3 1.8 0 0 1 834.299988 179.899994 A 3 1.8 0 0 1 837.299988 178.099994 A 3 1.8 0 0 1 840.299988 179.899994 Z" fill="#FCF6B0"/>
			<path d="M 294.299988 371.899994 A 4 2.5 0 0 1 290.299988 374.399994 A 4 2.5 0 0 1 286.299988 371.899994 A 4 2.5 0 0 1 290.299988 369.399994 A 4 2.5 0 0 1 294.299988 371.899994 Z" fill="#FCF6B0"/>
			<path d="M 178 223 A 3 1.8 0 0 1 175 224.8 A 3 1.8 0 0 1 172 223 A 3 1.8 0 0 1 175 221.2 A 3 1.8 0 0 1 178 223 Z" fill="#FCF6B0"/>
			<path d="M 202.199997 246.600006 A 3 1.8 0 0 1 199.199997 248.400006 A 3 1.8 0 0 1 196.199997 246.600006 A 3 1.8 0 0 1 199.199997 244.800006 A 3 1.8 0 0 1 202.199997 246.600006 Z" fill="#FCF6B0"/>
			<path d="M 239.699997 233.899994 A 3 1.8 0 0 1 236.699997 235.699994 A 3 1.8 0 0 1 233.699997 233.899994 A 3 1.8 0 0 1 236.699997 232.099994 A 3 1.8 0 0 1 239.699997 233.899994 Z" fill="#FCF6B0"/>
			<path d="M 155.5 235.699997 A 3 1.8 0 0 1 152.5 237.499997 A 3 1.8 0 0 1 149.5 235.699997 A 3 1.8 0 0 1 152.5 233.899997 A 3 1.8 0 0 1 155.5 235.699997 Z" fill="#FCF6B0"/>
			<path d="M 222.100006 216 A 3 1.8 0 0 1 219.100006 217.8 A 3 1.8 0 0 1 216.100006 216 A 3 1.8 0 0 1 219.100006 214.2 A 3 1.8 0 0 1 222.100006 216 Z" fill="#FCF6B0"/>
			<path d="M 160 197.5 A 3 1.8 0 0 1 157 199.3 A 3 1.8 0 0 1 154 197.5 A 3 1.8 0 0 1 157 195.7 A 3 1.8 0 0 1 160 197.5 Z" fill="#FCF6B0"/>
			<path d="M 249.5 192.5 A 3 1.8 0 0 1 246.5 194.3 A 3 1.8 0 0 1 243.5 192.5 A 3 1.8 0 0 1 246.5 190.7 A 3 1.8 0 0 1 249.5 192.5 Z" fill="#FCF6B0"/>
			<path d="M 269.799988 253.600006 A 3 1.8 0 0 1 266.799988 255.400006 A 3 1.8 0 0 1 263.799988 253.600006 A 3 1.8 0 0 1 266.799988 251.800006 A 3 1.8 0 0 1 269.799988 253.600006 Z" fill="#FCF6B0"/>
			<path d="M 274.299988 215.399994 A 3 1.8 0 0 1 271.299988 217.199994 A 3 1.8 0 0 1 268.299988 215.399994 A 3 1.8 0 0 1 271.299988 213.599994 A 3 1.8 0 0 1 274.299988 215.399994 Z" fill="#FCF6B0"/>
			<path d="M 1012.5 327.799988 A 3 1.8 0 0 1 1009.5 329.599988 A 3 1.8 0 0 1 1006.5 327.799988 A 3 1.8 0 0 1 1009.5 325.999988 A 3 1.8 0 0 1 1012.5 327.799988 Z" fill="#FCF6B0"/>
			<path d="M 1036.699951 351.5 A 3 1.8 0 0 1 1033.699951 353.3 A 3 1.8 0 0 1 1030.699951 351.5 A 3 1.8 0 0 1 1033.699951 349.7 A 3 1.8 0 0 1 1036.699951 351.5 Z" fill="#FCF6B0"/>
			<path d="M 1074.099976 338.700012 A 3 1.8 0 0 1 1071.099976 340.500012 A 3 1.8 0 0 1 1068.099976 338.700012 A 3 1.8 0 0 1 1071.099976 336.900012 A 3 1.8 0 0 1 1074.099976 338.700012 Z" fill="#FCF6B0"/>
			<path d="M 989.900024 340.5 A 3 1.8 0 0 1 986.900024 342.3 A 3 1.8 0 0 1 983.900024 340.5 A 3 1.8 0 0 1 986.900024 338.7 A 3 1.8 0 0 1 989.900024 340.5 Z" fill="#FCF6B0"/>
			<path d="M 1056.599976 320.799988 A 3 1.8 0 0 1 1053.599976 322.599988 A 3 1.8 0 0 1 1050.599976 320.799988 A 3 1.8 0 0 1 1053.599976 318.999988 A 3 1.8 0 0 1 1056.599976 320.799988 Z" fill="#FCF6B0"/>
			<path d="M 994.400024 302.299988 A 3 1.8 0 0 1 991.400024 304.099988 A 3 1.8 0 0 1 988.400024 302.299988 A 3 1.8 0 0 1 991.400024 300.499988 A 3 1.8 0 0 1 994.400024 302.299988 Z" fill="#FCF6B0"/>
			<path d="M 1084 297.299988 A 3 1.8 0 0 1 1081 299.099988 A 3 1.8 0 0 1 1078 297.299988 A 3 1.8 0 0 1 1081 295.499988 A 3 1.8 0 0 1 1084 297.299988 Z" fill="#FCF6B0"/>
			<path d="M 1104.300049 358.399994 A 3 1.8 0 0 1 1101.300049 360.199994 A 3 1.8 0 0 1 1098.300049 358.399994 A 3 1.8 0 0 1 1101.300049 356.599994 A 3 1.8 0 0 1 1104.300049 358.399994 Z" fill="#FCF6B0"/>
			<path d="M 1108.800049 320.200012 A 3 1.8 0 0 1 1105.800049 322.000012 A 3 1.8 0 0 1 1102.800049 320.200012 A 3 1.8 0 0 1 1105.800049 318.400012 A 3 1.8 0 0 1 1108.800049 320.200012 Z" fill="#FCF6B0"/>
			<path d="M 823 249 A 3 1.8 0 0 1 820 250.8 A 3 1.8 0 0 1 817 249 A 3 1.8 0 0 1 820 247.2 A 3 1.8 0 0 1 823 249 Z" fill="#FCF6B0"/>
			<path d="M 847.099976 272.600006 A 3 1.8 0 0 1 844.099976 274.400006 A 3 1.8 0 0 1 841.099976 272.600006 A 3 1.8 0 0 1 844.099976 270.800006 A 3 1.8 0 0 1 847.099976 272.600006 Z" fill="#FCF6B0"/>
			<path d="M 884.599976 259.799988 A 3 1.8 0 0 1 881.599976 261.599988 A 3 1.8 0 0 1 878.599976 259.799988 A 3 1.8 0 0 1 881.599976 257.999988 A 3 1.8 0 0 1 884.599976 259.799988 Z" fill="#FCF6B0"/>
			<path d="M 867.099976 241.899994 A 3 1.8 0 0 1 864.099976 243.699994 A 3 1.8 0 0 1 861.099976 241.899994 A 3 1.8 0 0 1 864.099976 240.099994 A 3 1.8 0 0 1 867.099976 241.899994 Z" fill="#FCF6B0"/>
			<path d="M 894.400024 218.399994 A 3 1.8 0 0 1 891.400024 220.199994 A 3 1.8 0 0 1 888.400024 218.399994 A 3 1.8 0 0 1 891.400024 216.599994 A 3 1.8 0 0 1 894.400024 218.399994 Z" fill="#FCF6B0"/>
			<path d="M 939.799988 252.600006 A 3 1.8 0 0 1 936.799988 254.400006 A 3 1.8 0 0 1 933.799988 252.600006 A 3 1.8 0 0 1 936.799988 250.800006 A 3 1.8 0 0 1 939.799988 252.600006 Z" fill="#FCF6B0"/>
		</g><path d="M 938.499988 199.399994 A 3.7 2.2 0 0 1 934.799988 201.599994 A 3.7 2.2 0 0 1 931.099988 199.399994 A 3.7 2.2 0 0 1 934.799988 197.199994 A 3.7 2.2 0 0 1 938.499988 199.399994 Z" fill="#FCF6B0" transform="matrix(0.7914552688598632, 0, 0, 0.7914552688598632, -16.813212942974246, -40.72523336369436)"/><path d="M 828.100024 193.199997 A 3.7 2.2 0 0 1 824.400024 195.399997 A 3.7 2.2 0 0 1 820.700024 193.199997 A 3.7 2.2 0 0 1 824.400024 190.999997 A 3.7 2.2 0 0 1 828.100024 193.199997 Z" fill="#FCF6B0" transform="matrix(0.7914552688598632, 0, 0, 0.7914552688598632, -16.813212942974246, -40.72523336369436)"/><path d="M 864.900012 373 A 3.7 2.2 0 0 1 861.200012 375.2 A 3.7 2.2 0 0 1 857.500012 373 A 3.7 2.2 0 0 1 861.200012 370.8 A 3.7 2.2 0 0 1 864.900012 373 Z" fill="#FCF6B0" transform="matrix(0.7914552688598632, 0, 0, 0.7914552688598632, -16.813212942974246, -40.72523336369436)"/><path d="M 835.100024 402.100006 A 3.7 2.2 0 0 1 831.400024 404.300006 A 3.7 2.2 0 0 1 827.700024 402.100006 A 3.7 2.2 0 0 1 831.400024 399.900006 A 3.7 2.2 0 0 1 835.100024 402.100006 Z" fill="#FCF6B0" transform="matrix(0.7914552688598632, 0, 0, 0.7914552688598632, -16.813212942974246, -40.72523336369436)"/><path d="M 788.900012 386.399994 A 3.7 2.2 0 0 1 785.200012 388.599994 A 3.7 2.2 0 0 1 781.500012 386.399994 A 3.7 2.2 0 0 1 785.200012 384.199994 A 3.7 2.2 0 0 1 788.900012 386.399994 Z" fill="#FCF6B0" transform="matrix(0.7914552688598632, 0, 0, 0.7914552688598632, -16.813212942974246, -40.72523336369436)"/><path d="M 892.7 388.600006 A 3.7 2.2 0 0 1 889 390.800006 A 3.7 2.2 0 0 1 885.3 388.600006 A 3.7 2.2 0 0 1 889 386.400006 A 3.7 2.2 0 0 1 892.7 388.600006 Z" fill="#FCF6B0" transform="matrix(0.7914552688598632, 0, 0, 0.7914552688598632, -16.813212942974246, -40.72523336369436)"/><path d="M 810.499988 364.299988 A 3.7 2.2 0 0 1 806.799988 366.499988 A 3.7 2.2 0 0 1 803.099988 364.299988 A 3.7 2.2 0 0 1 806.799988 362.099988 A 3.7 2.2 0 0 1 810.499988 364.299988 Z" fill="#FCF6B0" transform="matrix(0.7914552688598632, 0, 0, 0.7914552688598632, -16.813212942974246, -40.72523336369436)"/><path d="M 720.799976 377.5 A 3.7 2.2 0 0 1 717.099976 379.7 A 3.7 2.2 0 0 1 713.399976 377.5 A 3.7 2.2 0 0 1 717.099976 375.3 A 3.7 2.2 0 0 1 720.799976 377.5 Z" fill="#FCF6B0" transform="matrix(0.7914552688598632, 0, 0, 0.7914552688598632, -16.813212942974246, -40.72523336369436)"/><path d="M 943.2 393 A 3.7 2.2 0 0 1 939.5 395.2 A 3.7 2.2 0 0 1 935.8 393 A 3.7 2.2 0 0 1 939.5 390.8 A 3.7 2.2 0 0 1 943.2 393 Z" fill="#FCF6B0" transform="matrix(0.7914552688598632, 0, 0, 0.7914552688598632, -16.813212942974246, -40.72523336369436)"/><path d="M 1226.7 330.700012 A 3.7 2.2 0 0 1 1223 332.900012 A 3.7 2.2 0 0 1 1219.3 330.700012 A 3.7 2.2 0 0 1 1223 328.500012 A 3.7 2.2 0 0 1 1226.7 330.700012 Z" fill="#FCF6B0" transform="matrix(0.7914552688598632, 0, 0, 0.7914552688598632, -16.813212942974246, -40.72523336369436)"/><path d="M 1196.899951 359.899994 A 3.7 2.2 0 0 1 1193.199951 362.099994 A 3.7 2.2 0 0 1 1189.499951 359.899994 A 3.7 2.2 0 0 1 1193.199951 357.699994 A 3.7 2.2 0 0 1 1196.899951 359.899994 Z" fill="#FCF6B0" transform="matrix(0.7914552688598632, 0, 0, 0.7914552688598632, -16.813212942974246, -40.72523336369436)"/><path d="M 1150.7 344.100006 A 3.7 2.2 0 0 1 1147 346.300006 A 3.7 2.2 0 0 1 1143.3 344.100006 A 3.7 2.2 0 0 1 1147 341.900006 A 3.7 2.2 0 0 1 1150.7 344.100006 Z" fill="#FCF6B0" transform="matrix(0.7914552688598632, 0, 0, 0.7914552688598632, -16.813212942974246, -40.72523336369436)"/><path d="M 1254.500049 346.299988 A 3.7 2.2 0 0 1 1250.800049 348.499988 A 3.7 2.2 0 0 1 1247.100049 346.299988 A 3.7 2.2 0 0 1 1250.800049 344.099988 A 3.7 2.2 0 0 1 1254.500049 346.299988 Z" fill="#FCF6B0" transform="matrix(0.7914552688598632, 0, 0, 0.7914552688598632, -16.813212942974246, -40.72523336369436)"/><path d="M 1172.299976 322 A 3.7 2.2 0 0 1 1168.599976 324.2 A 3.7 2.2 0 0 1 1164.899976 322 A 3.7 2.2 0 0 1 1168.599976 319.8 A 3.7 2.2 0 0 1 1172.299976 322 Z" fill="#FCF6B0" transform="matrix(0.7914552688598632, 0, 0, 0.7914552688598632, -16.813212942974246, -40.72523336369436)"/><path d="M 1248.899951 299.299988 A 3.7 2.2 0 0 1 1245.199951 301.499988 A 3.7 2.2 0 0 1 1241.499951 299.299988 A 3.7 2.2 0 0 1 1245.199951 297.099988 A 3.7 2.2 0 0 1 1248.899951 299.299988 Z" fill="#FCF6B0" transform="matrix(0.7914552688598632, 0, 0, 0.7914552688598632, -16.813212942974246, -40.72523336369436)"/><path d="M 1138.600024 293.100006 A 3.7 2.2 0 0 1 1134.900024 295.300006 A 3.7 2.2 0 0 1 1131.200024 293.100006 A 3.7 2.2 0 0 1 1134.900024 290.900006 A 3.7 2.2 0 0 1 1138.600024 293.100006 Z" fill="#FCF6B0" transform="matrix(0.7914552688598632, 0, 0, 0.7914552688598632, -16.813212942974246, -40.72523336369436)"/><path d="M 1009.799976 366.200012 A 3.7 2.2 0 0 1 1006.099976 368.400012 A 3.7 2.2 0 0 1 1002.399976 366.200012 A 3.7 2.2 0 0 1 1006.099976 364.000012 A 3.7 2.2 0 0 1 1009.799976 366.200012 Z" fill="#FCF6B0" transform="matrix(0.7914552688598632, 0, 0, 0.7914552688598632, -16.813212942974246, -40.72523336369436)"/><path d="M 1113.600024 368.399994 A 3.7 2.2 0 0 1 1109.900024 370.599994 A 3.7 2.2 0 0 1 1106.200024 368.399994 A 3.7 2.2 0 0 1 1109.900024 366.199994 A 3.7 2.2 0 0 1 1113.600024 368.399994 Z" fill="#FCF6B0" transform="matrix(0.7914552688598632, 0, 0, 0.7914552688598632, -16.813212942974246, -40.72523336369436)"/><path d="M 1108.000049 321.399994 A 3.7 2.2 0 0 1 1104.300049 323.599994 A 3.7 2.2 0 0 1 1100.600049 321.399994 A 3.7 2.2 0 0 1 1104.300049 319.199994 A 3.7 2.2 0 0 1 1108.000049 321.399994 Z" fill="#FCF6B0" transform="matrix(0.7914552688598632, 0, 0, 0.7914552688598632, -16.813212942974246, -40.72523336369436)"/><path d="M 997.600024 315.200012 A 3.7 2.2 0 0 1 993.900024 317.400012 A 3.7 2.2 0 0 1 990.200024 315.200012 A 3.7 2.2 0 0 1 993.900024 313.000012 A 3.7 2.2 0 0 1 997.600024 315.200012 Z" fill="#FCF6B0" transform="matrix(0.7914552688598632, 0, 0, 0.7914552688598632, -16.813212942974246, -40.72523336369436)"/><path d="M 950.900024 135.699997 A 3 1.8 0 0 1 947.900024 137.499997 A 3 1.8 0 0 1 944.900024 135.699997 A 3 1.8 0 0 1 947.900024 133.899997 A 3 1.8 0 0 1 950.900024 135.699997 Z" fill="#FCF6B0" transform="matrix(0.7914552688598632, 0, 0, 0.7914552688598632, -16.813212942974246, -40.72523336369436)"/><path d="M 968.400024 117.800003 A 3 1.8 0 0 1 965.400024 119.600003 A 3 1.8 0 0 1 962.400024 117.800003 A 3 1.8 0 0 1 965.400024 116.000003 A 3 1.8 0 0 1 968.400024 117.800003 Z" fill="#FCF6B0" transform="matrix(0.7914552688598632, 0, 0, 0.7914552688598632, -16.813212942974246, -40.72523336369436)"/><path d="M 941 94.400002 A 3 1.8 0 0 1 938 96.200001 A 3 1.8 0 0 1 935 94.400002 A 3 1.8 0 0 1 938 92.600002 A 3 1.8 0 0 1 941 94.400002 Z" fill="#FCF6B0" transform="matrix(0.7914552688598632, 0, 0, 0.7914552688598632, -16.813212942974246, -40.72523336369436)"/><path d="M 895.599976 128.5 A 3 1.8 0 0 1 892.599976 130.3 A 3 1.8 0 0 1 889.599976 128.5 A 3 1.8 0 0 1 892.599976 126.7 A 3 1.8 0 0 1 895.599976 128.5 Z" fill="#FCF6B0" transform="matrix(0.7914552688598632, 0, 0, 0.7914552688598632, -16.813212942974246, -40.72523336369436)"/><path d="M 1030.599976 175.300003 A 3 1.8 0 0 1 1027.599976 177.100003 A 3 1.8 0 0 1 1024.599976 175.300003 A 3 1.8 0 0 1 1027.599976 173.500003 A 3 1.8 0 0 1 1030.599976 175.300003 Z" fill="#FCF6B0" transform="matrix(0.7914552688598632, 0, 0, 0.7914552688598632, -16.813212942974246, -40.72523336369436)"/><path d="M 702.199974 219.300003 A 108.599998 108.599998 0 0 1 593.599976 327.900002 A 108.599998 108.599998 0 0 1 484.999977 219.300003 A 108.599998 108.599998 0 0 1 593.599976 110.700005 A 108.599998 108.599998 0 0 1 702.199974 219.300003 Z" fill="#F8DB94" transform="matrix(0.7914552688598632, 0, 0, 0.7914552688598632, -16.813212942974246, -40.72523336369436)"/><path opacity="0.52" fill="#BC9F77" d="M579.7,10H457.3c0,0,55.1,73.4,52.5,188c-2.6,114.6-81.7,200.5-60.9,260.2&#10;&#9;&#9;s110.5,123.1,101.7,181c-8.8,57.8-48.9,120.6-44.8,143.7c0,0,66-151.1,64-169.9c-2-18.8-113-120.4-107.5-161.8&#10;&#9;&#9;c5.5-41.4,82.8-107.4,94.2-127.5c11.3-20.1-9.3-90.8-9.3-90.8s45.3-30.9,54-54.2C609.7,155.3,579.7,10,579.7,10z" transform="matrix(0.7914552688598632, 0, 0, 0.7914552688598632, -16.813212942974246, -40.72523336369436)"/><path d="M 758.900024 911.799988 A 222.5 12.2 0 0 1 536.400024 923.999988 A 222.5 12.2 0 0 1 313.900024 911.799988 A 222.5 12.2 0 0 1 536.400024 899.599988 A 222.5 12.2 0 0 1 758.900024 911.799988 Z" fill="#F8DB94" transform="matrix(0.7914552688598632, 0, 0, 0.7914552688598632, -16.813212942974246, -40.72523336369436)"/><path d="M 470.799988 866.799988 H 650.199982 V 892.599987 H 470.799988 V 866.799988 Z" fill="#F8DB94" transform="matrix(0.7914552688598632, 0, 0, 0.7914552688598632, -16.813212942974246, -40.72523336369436)"/><path fill="#3F2524" d="M503.6,866.8h-32.8v23.9C476,881.1,487.8,872.7,503.6,866.8z" transform="matrix(0.7914552688598632, 0, 0, 0.7914552688598632, -16.813212942974246, -40.72523336369436)"/><path fill="#3F2524" d="M614.5,866.8c16.9,6.3,29.1,15.4,33.7,25.8h2v-25.8H614.5z" transform="matrix(0.7914552688598632, 0, 0, 0.7914552688598632, -16.813212942974246, -40.72523336369436)"/><path fill="#F8DB94" d="M592.5,773.8h-13.1v4.3c0,0-5.2-6.3-11.6,1.3s-15.6,66.9-10.7,74.2s10.4,3.8,10.4,3.8s23.2,23.2,50.1,14.3&#10;&#9;&#9;&#9;s-3.8-97.3-11.1-97.9s-11.3,2.3-11.3,2.3L592.5,773.8z" transform="matrix(0.7914552688598632, 0, 0, 0.7914552688598632, -16.813212942974246, -40.72523336369436)"/><path fill="#3F2524" d="M606.4,773.8c-7.3-0.6-11.3,2.3-11.3,2.3l-2.7-2.3h-13.1v4.3c0,0-3.3-3.9-7.8-1.8l39.8,40.9l-11.5-1.8v8.1&#10;&#9;&#9;&#9;l8.5,5.7l-49.9-14.6c-2.7,17.4-4,35.3-1.5,39.1c4.8,7.3,10.4,3.8,10.4,3.8s23.2,23.2,50.1,14.3&#10;&#9;&#9;&#9;C644.3,862.8,613.8,774.4,606.4,773.8z" transform="matrix(0.7914552688598632, 0, 0, 0.7914552688598632, -16.813212942974246, -40.72523336369436)"/><path fill="#B55232" d="M590.1,789.4l-6.2-27.8c0,0,0.1,18.6-3.1,22.1c-3.3,3.5-6.7,9.4-2.1,12c0,0-4.2,5.4-0.4,8.8&#10;&#9;&#9;&#9;c3.7,3.4,6.5,10.5,6.5,10.5l-0.4-22.9L590.1,789.4z" transform="matrix(0.7914552688598632, 0, 0, 0.7914552688598632, -16.813212942974246, -40.72523336369436)"/><path fill="#F8DB94" d="M597.8,759.4l-10-8.9c0,0-8.3,12.6-18,12.8l0.7,0.7c0,0,6.4,0.2,7.1,1.9c0.7,1.7-0.7,1.6-0.7,1.6l4.3,2&#10;&#9;&#9;&#9;l-3.6,0.8c0,0,1.6,0.1,1.3,1.3s-3.3,3-3.3,3l2.4,2.1c0,0,7.4-2.2,8-0.7c4.7,10.8-1.8,16-1.8,16l7.7,3.9l3.6-3.9l-3.9-19.9&#10;&#9;&#9;&#9;L597.8,759.4z" transform="matrix(0.7914552688598632, 0, 0, 0.7914552688598632, -16.813212942974246, -40.72523336369436)"/><path fill="#ED7C31" d="M601.2,781.5c-3.4-2.7-4.3-14.4-4.3-14.4l-6.2-11.7c0,0-3.4,15.1-1.6,17.8s3.3,5,2.5,7.1&#10;&#9;&#9;&#9;c-0.8,2.1-3.6,2.2-3,5.1c0.6,2.9,5.6-0.7,5.6-0.7l1.4,7.4l4.7-4.1l5,2.3C605.2,790.2,604.5,784.1,601.2,781.5z" transform="matrix(0.7914552688598632, 0, 0, 0.7914552688598632, -16.813212942974246, -40.72523336369436)"/><path fill="#824737" d="M585,756.2l3,2.5l0.6,1.2l-0.3,0.2c0,0-0.4-1.1-0.5-1.1s-3.1-1.7-3.1-1.7L585,756.2z" transform="matrix(0.7914552688598632, 0, 0, 0.7914552688598632, -16.813212942974246, -40.72523336369436)"/><path d="M 584.7000122070312 759.4000244140625 L 585.0999755859375 758.7999877929688 L 586.0999755859375 759.7999877929688 Z" fill="#824737" transform="matrix(0.7914552688598632, 0, 0, 0.7914552688598632, -16.813212942974246, -40.72523336369436)"/><path fill="#824737" d="M587.2,750.1c0,0,4.9,21.1,11.1,19.7l0.9-2.6c0,0,7.7-1.9,9.1-3.9C609.7,761.4,596.9,747.2,587.2,750.1z" transform="matrix(0.7914552688598632, 0, 0, 0.7914552688598632, -16.813212942974246, -40.72523336369436)"/><path fill="#577483" d="M592,859.9c0,0-40-55.1-44.6-42.7c-4.6,12.4,35.8,75.1,35.8,75.1h6.8L570.9,855c0,0,15.5,13.5,22.6,16&#10;&#9;&#9;&#9;c7.1,2.5,22.9-24.2,22.9-24.2l-11.2,45.5h3.2c0,0,28.2-66.5,23.4-72.8C627.1,813.2,592,859.9,592,859.9z" transform="matrix(0.7914552688598632, 0, 0, 0.7914552688598632, -16.813212942974246, -40.72523336369436)"/><path fill="#F8DB94" d="M604.3,844.3c-6.9,8.4-12.3,15.6-12.3,15.6s-5.4-7.5-12.5-16.3l-32.1-26.3c-4.5,12.5,35.8,75,35.8,75h6.8&#10;&#9;&#9;&#9;L570.9,855c0,0,15.5,13.5,22.6,16c7.1,2.5,22.9-24.2,22.9-24.2l-11.2,45.5h3.2c0,0,23.4-55.2,24-69.8L604.3,844.3z" transform="matrix(0.7914552688598632, 0, 0, 0.7914552688598632, -16.813212942974246, -40.72523336369436)"/><path d="M 588.5 886.4000244140625 L 581.5 867.5 L 568.2000122070312 870.7999877929688 L 581.0999755859375 889.2999877929688 L 577.7000122070312 897.2000122070312 L 594.9000244140625 896.4000244140625 L 592.0999755859375 891.2999877929688 Z" fill="#3F2524" transform="matrix(0.7914552688598632, 0, 0, 0.7914552688598632, -16.813212942974246, -40.72523336369436)"/><path d="M 603.0999755859375 886.4000244140625 L 610.0999755859375 867.5 L 623.4000244140625 870.7999877929688 L 610.5 889.2999877929688 L 611.7000122070312 892.2999877929688 L 613.9000244140625 897.2000122070312 L 596.7000122070312 896.4000244140625 Z" fill="#3F2524" transform="matrix(0.7914552688598632, 0, 0, 0.7914552688598632, -16.813212942974246, -40.72523336369436)"/><path d="M 580.2000122070312 830.0999755859375 L 587.5999755859375 823.7000122070312 L 596.7000122070312 824.2999877929688 L 599.9000244140625 826.9000244140625 L 598.7999877929688 827.2000122070312 L 596.0999755859375 825.7000122070312 L 589.7999877929688 825.4000244140625 L 596.4000244140625 826.9000244140625 L 599.9000244140625 829.2000122070312 L 597.2999877929688 831 L 590 830 L 594.5 831.4000244140625 L 593.5 831.9000244140625 L 589.2000122070312 831.5 L 580.2000122070312 832.4000244140625 Z" fill="#F8DB94" transform="matrix(0.7914552688598632, 0, 0, 0.7914552688598632, -16.813212942974246, -40.72523336369436)"/><path d="M 599.9000244140625 819.2000122070312 L 592.5 812.9000244140625 L 583.4000244140625 813.5 L 580.2000122070312 816 L 581.2999877929688 816.2999877929688 L 584 814.7999877929688 L 590.2999877929688 814.5999755859375 L 583.7000122070312 816 L 580.2000122070312 818.2999877929688 L 582.7999877929688 820.2000122070312 L 590 819.0999755859375 L 585.5999755859375 820.5 L 586.5 821.0999755859375 L 590.9000244140625 820.7000122070312 L 599.9000244140625 821.5 Z" fill="#F8DB94" transform="matrix(0.7914552688598632, 0, 0, 0.7914552688598632, -16.813212942974246, -40.72523336369436)"/><linearGradient id="SVGID_6_" gradientUnits="userSpaceOnUse" x1="511.679" y1="860.924" x2="511.679" y2="724.2443">
			<stop offset="5.135135e-02" style="stop-color:#E0A810"/>
			<stop offset="0.8351" style="stop-color:#DE8126"/>
		</linearGradient><path fill="url(#SVGID_6_)" d="M514.9,661.6c0,0,9,12.3,5.3,44.3c-3.7,32-30.7,27.3-31.5,61.3c-0.7,33.9,8.5,31.1,8.5,31.1&#10;&#9;&#9;&#9;s-14.4,27.3-6.7,51.8c7.8,24.5,19.5-17,19.5-17l4.8,33.7l0.4-48.7l11.8,51c0,0,7.2-5.9,7.9-35.1s-13.5-13.7-17.5-43.6&#10;&#9;&#9;&#9;c-4-29.9,2.6-12,11-45S524.7,665.3,514.9,661.6z" transform="matrix(0.7914552688598632, 0, 0, 0.7914552688598632, -16.813212942974246, -40.72523336369436)"/><linearGradient id="SVGID_7_" gradientUnits="userSpaceOnUse" x1="527.6087" y1="796.4949" x2="527.6087" y2="645.9647">
				<stop offset="5.135135e-02" style="stop-color:#E0A810"/>
				<stop offset="0.8351" style="stop-color:#DE8126"/>
			</linearGradient><path fill="url(#SVGID_7_)" d="M527.3,708.3c0,0,6.5,11.4,1.3,28.8c-5.2,17.5-11-3.8-19.6,18.8c-8.6,22.6,2.7,26.1,2.7,26.1&#10;&#9;&#9;&#9;&#9;s-13.2,7.7-12.5,25.1c0.7,17.4,18.8,11.8,14.9,24s-16.4-10.3-20.3,6.9c-3.9,17.2,1.5,18.7,1.5,18.7s-13.1,1.1-9.3,16.7&#10;&#9;&#9;&#9;&#9;s34.2-6.5,34.2-6.5s4.5,25.8,15.2,25.8s14.3-33.2,14.3-33.2s14.5,3.5,19.5-10.5s-15.8-16.2-15.8-16.2s10.3,0.9,2.5-15.3&#10;&#9;&#9;&#9;&#9;c-7.8-16.2-19.4,2.2-27.3-3.9c-7.8-6.1,15.6-11.4,17.2-21.4c1.7-10.1-12.5-10.5-12.5-10.5s8-6.1,4.3-13.1c-3.7-7-12.5,8.8-15.5,2&#10;&#9;&#9;&#9;&#9;c-3-6.8,9.2-5,13.3-17.3S535.5,717.9,527.3,708.3z" transform="matrix(0.7914552688598632, 0, 0, 0.7914552688598632, -16.813212942974246, -40.72523336369436)"/><linearGradient id="SVGID_8_" gradientUnits="userSpaceOnUse" x1="527.4651" y1="896.217" x2="527.4651" y2="881.678">
			<stop offset="0" style="stop-color:#574109"/>
			<stop offset="0.8676" style="stop-color:#B07E09"/>
		</linearGradient><path d="M 589.7999877929688 904.4000244140625 L 528.4000244140625 865.2999877929688 L 526.7999877929688 866 L 525.5999755859375 861.0999755859375 L 522.7000122070312 863.2999877929688 L 516.9000244140625 861.7999877929688 L 513.7000122070312 870.2000122070312 L 465.20001220703125 907.2999877929688 L 483.29998779296875 907.2999877929688 L 508.20001220703125 884.4000244140625 L 500.5 904.4000244140625 L 513.2999877929688 905.0999755859375 L 519 879.9000244140625 L 531.9000244140625 907.0999755859375 L 541.5999755859375 907.0999755859375 L 522.2000122070312 871.5 L 523.0999755859375 870.7000122070312 L 526.2000122070312 872.5999755859375 L 524.7999877929688 873 L 549.9000244140625 904.4000244140625 L 562.2999877929688 904.4000244140625 L 542.2000122070312 882.2999877929688 L 578.5999755859375 904.4000244140625 Z" fill="url(#SVGID_8_)" transform="matrix(0.7914552688598632, 0, 0, 0.7914552688598632, -16.813212942974246, -40.72523336369436)"/><path d="M 551.799976 786.700012 A 2.7 2.7 0 0 1 549.099976 789.400012 A 2.7 2.7 0 0 1 546.399976 786.700012 A 2.7 2.7 0 0 1 549.099976 784.000012 A 2.7 2.7 0 0 1 551.799976 786.700012 Z" fill="#FFF197" transform="matrix(0.7914552688598632, 0, 0, 0.7914552688598632, -16.813212942974246, -40.72523336369436)"/><path d="M 554.600024 812.599976 A 2.7 2.7 0 0 1 551.900024 815.299976 A 2.7 2.7 0 0 1 549.200024 812.599976 A 2.7 2.7 0 0 1 551.900024 809.899976 A 2.7 2.7 0 0 1 554.600024 812.599976 Z" fill="#FFF197" transform="matrix(0.7914552688598632, 0, 0, 0.7914552688598632, -16.813212942974246, -40.72523336369436)"/><path d="M 506.700006 770.700012 A 1.6 1.6 0 0 1 505.100006 772.300012 A 1.6 1.6 0 0 1 503.500006 770.700012 A 1.6 1.6 0 0 1 505.100006 769.100012 A 1.6 1.6 0 0 1 506.700006 770.700012 Z" fill="#FFF197" transform="matrix(0.7914552688598632, 0, 0, 0.7914552688598632, -16.813212942974246, -40.72523336369436)"/><path d="M 483.800012 784 A 1.6 1.6 0 0 1 482.200012 785.6 A 1.6 1.6 0 0 1 480.600012 784 A 1.6 1.6 0 0 1 482.200012 782.4 A 1.6 1.6 0 0 1 483.800012 784 Z" fill="#FFF197" transform="matrix(0.7914552688598632, 0, 0, 0.7914552688598632, -16.813212942974246, -40.72523336369436)"/><path d="M 488.3 797.299988 A 2.3 2.3 0 0 1 486 799.599988 A 2.3 2.3 0 0 1 483.7 797.299988 A 2.3 2.3 0 0 1 486 794.999988 A 2.3 2.3 0 0 1 488.3 797.299988 Z" fill="#FFF197" transform="matrix(0.7914552688598632, 0, 0, 0.7914552688598632, -16.813212942974246, -40.72523336369436)"/><path d="M 475.500012 825.799988 A 2.3 2.3 0 0 1 473.200012 828.099988 A 2.3 2.3 0 0 1 470.900012 825.799988 A 2.3 2.3 0 0 1 473.200012 823.499988 A 2.3 2.3 0 0 1 475.500012 825.799988 Z" fill="#FFF197" transform="matrix(0.7914552688598632, 0, 0, 0.7914552688598632, -16.813212942974246, -40.72523336369436)"/><path d="M 506.699988 801.900024 A 0.9 0.9 0 0 1 505.799988 802.800024 A 0.9 0.9 0 0 1 504.899988 801.900024 A 0.9 0.9 0 0 1 505.799988 801.000024 A 0.9 0.9 0 0 1 506.699988 801.900024 Z" fill="#FFF197" transform="matrix(0.7914552688598632, 0, 0, 0.7914552688598632, -16.813212942974246, -40.72523336369436)"/><path d="M 474.100012 792.299988 A 0.9 0.9 0 0 1 473.200012 793.199988 A 0.9 0.9 0 0 1 472.300012 792.299988 A 0.9 0.9 0 0 1 473.200012 791.399988 A 0.9 0.9 0 0 1 474.100012 792.299988 Z" fill="#FFF197" transform="matrix(0.7914552688598632, 0, 0, 0.7914552688598632, -16.813212942974246, -40.72523336369436)"/><path d="M 486.9 840.900024 A 0.9 0.9 0 0 1 486 841.800024 A 0.9 0.9 0 0 1 485.1 840.900024 A 0.9 0.9 0 0 1 486 840.000024 A 0.9 0.9 0 0 1 486.9 840.900024 Z" fill="#FFF197" transform="matrix(0.7914552688598632, 0, 0, 0.7914552688598632, -16.813212942974246, -40.72523336369436)"/><path d="M 539.300012 758.5 A 1.6 1.6 0 0 1 537.700012 760.1 A 1.6 1.6 0 0 1 536.100012 758.5 A 1.6 1.6 0 0 1 537.700012 756.9 A 1.6 1.6 0 0 1 539.300012 758.5 Z" transform="matrix(0.6527925133705139, -0.44748881459236134, 0.44748881459236134, 0.6527925133705139, -281.66161115159247, 305.02243967097365)" fill="#FFF197"/><path fill="#F8DB94" d="M388.8,641.3l32.8,9.5l-10.2,10.5l6,131.5l-49.6,4.7l-20.1-11.3l26.6-90.2c0,0-12.2,17.1-20.2,5.1&#10;&#9;&#9;&#9;C346.1,689,388.8,641.3,388.8,641.3z" transform="matrix(0.7914552688598632, 0, 0, 0.7914552688598632, -16.813212942974246, -40.72523336369436)"/><path fill="#6A4542" d="M390.4,746.7l5.7-90l-4.5-14.5l-2.9-0.8c0,0-42.8,47.7-34.7,59.7c8,12,20.2-5.1,20.2-5.1l-26.6,90.2&#10;&#9;&#9;&#9;l20.1,11.3l49.6-4.7l-1-21.8L390.4,746.7z" transform="matrix(0.7914552688598632, 0, 0, 0.7914552688598632, -16.813212942974246, -40.72523336369436)"/><path d="M 403 651.9000244140625 L 388.5 754.5 L 413.20001220703125 748.0999755859375 L 409.8999938964844 653.4000244140625 Z" fill="#F8DB94" transform="matrix(0.7914552688598632, 0, 0, 0.7914552688598632, -16.813212942974246, -40.72523336369436)"/><path fill="#F8DB94" d="M423,619.4l0.9,5.9c0,0-1,1.5-0.9,2.3c0.1,0.8,3.7,5.7,3.7,5.7l-0.6,0.6c0,0-3.7-0.2-4,0.7&#10;&#9;&#9;&#9;c-0.3,0.8,3.5,7.6,2.7,8.6c-0.8,1.1-10.2-0.5-10.2-0.5l-3.6,14l-11.5-3.5l13.5-30.7L423,619.4z" transform="matrix(0.7914552688598632, 0, 0, 0.7914552688598632, -16.813212942974246, -40.72523336369436)"/><path fill="#3F2524" d="M418.3,636.7l-2.3-3c0.9-3-2.2-7.2-0.4-7.9c1.8-0.7,2.6-3.3,2.8-4c0,0.4,0.3,1.4,4.4,1.8&#10;&#9;&#9;&#9;c5.1,0.5,8.8-9.4,8.8-9.4l-3.1,2c0,0,4-4.2,2-6.8c-2.1-2.6-13.1,8-13.1,8s-16,3-17.9,8.2c-2,5.2,4.7,5.8,4.7,5.8s0.8,4.8,2.9,5.5&#10;&#9;&#9;&#9;c2.1,0.7,3.8-2.1,3.8-2.1s1.1,1.4,2.6,1.3c0.2,6,2.3,16.6,15.2,10.9l-6.4-12.4L418.3,636.7z" transform="matrix(0.7914552688598632, 0, 0, 0.7914552688598632, -16.813212942974246, -40.72523336369436)"/><path d="M 418 626.2999877929688 L 421 625 L 422.79998779296875 624.7999877929688 L 422.20001220703125 625.5 Z" fill="#6A4542" transform="matrix(0.7914552688598632, 0, 0, 0.7914552688598632, -16.813212942974246, -40.72523336369436)"/><path d="M 418.6000061035156 628.5999755859375 L 419.8999938964844 629 L 420.1000061035156 628.2999877929688 Z" fill="#6A4542" transform="matrix(0.7914552688598632, 0, 0, 0.7914552688598632, -16.813212942974246, -40.72523336369436)"/><path fill="#F8DB94" d="M421.9,635.7l-3.3,2c0,0-0.6,3.1,0,3.5s1.3-2.6,2.6-1.8c1.4,0.8,0.5,1.8,1.4,1.8L421.9,635.7z" transform="matrix(0.7914552688598632, 0, 0, 0.7914552688598632, -16.813212942974246, -40.72523336369436)"/><path d="M 413.20001220703125 748.0999755859375 L 388.5 754.5 L 380.8999938964844 796.2000122070312 L 388.20001220703125 895.4000244140625 L 394.6000061035156 895.4000244140625 L 395.70001220703125 765.5999755859375 L 400.29998779296875 766.2999877929688 L 414.6000061035156 821 L 401.20001220703125 889.5999755859375 L 407.3999938964844 891 L 424.6000061035156 818.9000244140625 Z" fill="#F8DB94" transform="matrix(0.7914552688598632, 0, 0, 0.7914552688598632, -16.813212942974246, -40.72523336369436)"/><path d="M 389.1000061035156 754.4000244140625 L 388.5 754.5 L 380.8999938964844 796.2000122070312 L 388.20001220703125 895.4000244140625 L 394.6000061035156 895.4000244140625 L 395.6000061035156 779.2999877929688 Z" fill="#577483" transform="matrix(0.7914552688598632, 0, 0, 0.7914552688598632, -16.813212942974246, -40.72523336369436)"/><path d="M 411.1000061035156 839.0999755859375 L 401.20001220703125 889.5999755859375 L 407.3999938964844 891 L 415.6000061035156 856.5 Z" fill="#577483" transform="matrix(0.7914552688598632, 0, 0, 0.7914552688598632, -16.813212942974246, -40.72523336369436)"/><path fill="#6A4542" d="M443.5,707.4l3.3,7.9c0,0-24.2,24.9-33.5,17.8c-9.4-7.1-6-25.2-6-25.2L443.5,707.4z" transform="matrix(0.7914552688598632, 0, 0, 0.7914552688598632, -16.813212942974246, -40.72523336369436)"/><path d="M 454.6000061035156 697 L 451.20001220703125 690.5999755859375 L 456.70001220703125 689 L 458.8999938964844 693.2999877929688 Z" fill="#737144" transform="matrix(0.7914552688598632, 0, 0, 0.7914552688598632, -16.813212942974246, -40.72523336369436)"/><path fill="#3F2524" d="M416.8,729.9c0.6-1.7,2.1-2.9,3.9-2.9c1.9-0.1,3.8-0.6,5.6-1.5c6.8-3.7,9.1-12.7,5.1-20.2&#10;&#9;&#9;&#9;&#9;c-4-7.5-12.8-10.6-19.6-6.9c-1.8,1-3.3,2.3-4.4,3.9c-1,1.5-2.9,2.1-4.6,1.7c-4.1-1.1-8.5-0.7-12.3,1.3c-8.6,4.6-11.5,16-6.4,25.5&#10;&#9;&#9;&#9;&#9;s16.2,13.3,24.8,8.7C412.8,737.4,415.5,733.9,416.8,729.9z" transform="matrix(0.7914552688598632, 0, 0, 0.7914552688598632, -16.813212942974246, -40.72523336369436)"/><path fill="#F6C785" d="M419,728.7c0.4-1.6,1.9-2.7,3.5-2.7c1.8,0,3.5-0.4,5.1-1.3c6.1-3.3,7.8-12,3.8-19.5&#10;&#9;&#9;&#9;&#9;c-4-7.5-12.2-10.9-18.4-7.6c-1.6,0.9-2.9,2.1-3.9,3.6c-0.9,1.4-2.6,1.9-4.2,1.4c-3.8-1.2-7.8-1.1-11.3,0.8&#10;&#9;&#9;&#9;&#9;c-7.7,4.2-9.9,15.2-4.8,24.6c5.1,9.4,15.5,13.7,23.2,9.6C415.6,735.9,417.9,732.6,419,728.7z" transform="matrix(0.7914552688598632, 0, 0, 0.7914552688598632, -16.813212942974246, -40.72523336369436)"/><path d="M 423.799988 712.599976 A 6 6.6 0 0 1 417.799988 719.199975 A 6 6.6 0 0 1 411.799988 712.599976 A 6 6.6 0 0 1 417.799988 705.999976 A 6 6.6 0 0 1 423.799988 712.599976 Z" transform="matrix(0.697272002696991, -0.37451666593551636, 0.37451666593551636, 0.697272002696991, -244.33690412034252, 182.88836832087603)" fill="#AA962E"/><path d="M 423.400006 712.700012 A 5.8 6.6 0 0 1 417.600006 719.300012 A 5.8 6.6 0 0 1 411.800006 712.700012 A 5.8 6.6 0 0 1 417.600006 706.100012 A 5.8 6.6 0 0 1 423.400006 712.700012 Z" transform="matrix(0.697272002696991, -0.37451666593551636, 0.37451666593551636, 0.697272002696991, -244.3842368840144, 182.83642740290716)" fill="#3F2524"/><path d="M 397.899994 718.599976 H 410.899994 V 721.099976 H 397.899994 V 718.599976 Z" transform="matrix(0.37451666593551636, 0.697272002696991, -0.697272002696991, 0.37451666593551636, 653.6953834773137, -22.568075465745096)" fill="#737144"/><path d="M 398.700012 718.200012 H 411.700012 V 720.700012 H 398.700012 V 718.200012 Z" transform="matrix(0.37451666593551636, 0.697272002696991, -0.697272002696991, 0.37451666593551636, 653.72669451247, -23.247854518479585)" fill="#FFF197"/><path d="M 428.70001220703125 712.7000122070312 L 423.70001220703125 703.5 L 451.5 691.7999877929688 L 453.79998779296875 696.0999755859375 Z" fill="#737144" transform="matrix(0.7914552688598632, 0, 0, 0.7914552688598632, -16.813212942974246, -40.72523336369436)"/><path d="M 429.5 712.2999877929688 L 424.6000061035156 703.0999755859375 L 452.29998779296875 691.4000244140625 L 454.6000061035156 695.5999755859375 Z" fill="#AA962E" transform="matrix(0.7914552688598632, 0, 0, 0.7914552688598632, -16.813212942974246, -40.72523336369436)"/><path d="M 455.20001220703125 696.5999755859375 L 451.79998779296875 690.2999877929688 L 457.29998779296875 688.7000122070312 L 459.6000061035156 692.9000244140625 Z" fill="#824737" transform="matrix(0.7914552688598632, 0, 0, 0.7914552688598632, -16.813212942974246, -40.72523336369436)"/><path d="M 450.899994 693.400024 H 455.799994 V 693.700024 H 450.899994 V 693.400024 Z" transform="matrix(0.37451666593551636, 0.697272002696991, -0.697272002696991, 0.37451666593551636, 655.7831520320015, -67.62206106144833)" fill="#FFFFFF"/><path d="M 449.299988 694.099976 H 454.499988 V 694.399976 H 449.299988 V 694.099976 Z" transform="matrix(0.37451666593551636, 0.697272002696991, -0.697272002696991, 0.37451666593551636, 655.7131447077825, -66.33918600041329)" fill="#FFFFFF"/><path d="M 447.799988 694.900024 H 453.299988 V 695.200024 H 447.799988 V 694.900024 Z" transform="matrix(0.37451666593551636, 0.697272002696991, -0.697272002696991, 0.37451666593551636, 655.6580299616887, -65.05560903508115)" fill="#FFFFFF"/><path d="M 446.299988 695.599976 H 452.099988 V 695.899976 H 446.299988 V 695.599976 Z" transform="matrix(0.37451666593551636, 0.697272002696991, -0.697272002696991, 0.37451666593551636, 655.593943047626, -63.772428798264755)" fill="#FFFFFF"/><path d="M 444.700012 696.400024 H 450.800012 V 696.700024 H 444.700012 V 696.400024 Z" transform="matrix(0.37451666593551636, 0.697272002696991, -0.697272002696991, 0.37451666593551636, 655.5328468562202, -62.48915700871386)" fill="#FFFFFF"/><path d="M 443.200012 697.099976 H 449.600012 V 697.399976 H 443.200012 V 697.099976 Z" transform="matrix(0.37451666593551636, 0.697272002696991, -0.697272002696991, 0.37451666593551636, 655.4762672663762, -61.205648707932596)" fill="#FFFFFF"/><path d="M 441.600006 697.900024 H 448.300006 V 698.200024 H 441.600006 V 697.900024 Z" transform="matrix(0.37451666593551636, 0.697272002696991, -0.697272002696991, 0.37451666593551636, 655.4220680476262, -59.92199544865525)" fill="#FFFFFF"/><path d="M 440.100006 698.599976 H 447.100006 V 698.899976 H 440.100006 V 698.599976 Z" transform="matrix(0.37451666593551636, 0.697272002696991, -0.697272002696991, 0.37451666593551636, 655.3552345515322, -58.638960170334826)" fill="#FFFFFF"/><path d="M 438.5 699.400024 H 445.8 V 699.700024 H 438.5 V 699.400024 Z" transform="matrix(0.37451666593551636, 0.697272002696991, -0.697272002696991, 0.37451666593551636, 655.3042701960635, -57.355222987717866)" fill="#FFFFFF"/><path d="M 437 700.099976 H 444.6 V 700.399976 H 437 V 700.099976 Z" transform="matrix(0.37451666593551636, 0.697272002696991, -0.697272002696991, 0.37451666593551636, 655.2409767390325, -56.07195119816697)" fill="#FFFFFF"/><path d="M 435.5 700.900024 H 443.4 V 701.200024 H 435.5 V 700.900024 Z" transform="matrix(0.37451666593551636, 0.697272002696991, -0.697272002696991, 0.37451666593551636, 655.1760353327822, -54.78885488469041)" fill="#FFFFFF"/><path d="M 433.899994 701.599976 H 441.999994 V 701.899976 H 433.899994 V 701.599976 Z" transform="matrix(0.37451666593551636, 0.697272002696991, -0.697272002696991, 0.37451666593551636, 655.117624688251, -53.50542287785447)" fill="#FFFFFF"/><path d="M 432.399994 702.400024 H 440.899994 V 702.700024 H 432.399994 V 702.400024 Z" transform="matrix(0.37451666593551636, 0.697272002696991, -0.697272002696991, 0.37451666593551636, 655.0642189265325, -52.22175435978818)" fill="#FFFFFF"/><path d="M 430.799988 703.099976 H 439.599988 V 703.399976 H 430.799988 V 703.099976 Z" transform="matrix(0.37451666593551636, 0.697272002696991, -0.697272002696991, 0.37451666593551636, 655.0004371882512, -50.93857412297166)" fill="#FFFFFF"/><path d="M 429.299988 703.900024 H 438.299988 V 704.200024 H 429.299988 V 703.900024 Z" transform="matrix(0.37451666593551636, 0.697272002696991, -0.697272002696991, 0.37451666593551636, 654.93763201247, -49.655393886155366)" fill="#FFFFFF"/><path d="M 427.799988 704.599976 H 437.099988 V 704.899976 H 427.799988 V 704.599976 Z" transform="matrix(0.37451666593551636, 0.697272002696991, -0.697272002696991, 0.37451666593551636, 654.8837990046575, -48.37172536808896)" fill="#FFFFFF"/><path d="M 426.200012 705.400024 H 435.800013 V 705.700024 H 426.200012 V 705.400024 Z" transform="matrix(0.37451666593551636, 0.697272002696991, -0.697272002696991, 0.37451666593551636, 654.8268532038765, -47.08821706730748)" fill="#FFFFFF"/><path d="M 424.700012 706.099976 H 434.600012 V 706.399976 H 424.700012 V 706.099976 Z" transform="matrix(0.37451666593551636, 0.697272002696991, -0.697272002696991, 0.37451666593551636, 654.7767433405947, -45.80441122013963)" fill="#FFFFFF"/><path d="M 423.100006 706.799988 H 433.300006 V 707.099988 H 423.100006 V 706.799988 Z" transform="matrix(0.37451666593551636, 0.697272002696991, -0.697272002696991, 0.37451666593551636, 654.6920265437197, -44.52225332219041)" fill="#FFFFFF"/><path d="M 399.1000061035156 707.2000122070312 L 410.79998779296875 708.7000122070312 L 415.70001220703125 713 L 417.20001220703125 718.7999877929688 L 416.5 718.7000122070312 L 415.1000061035156 713.7999877929688 L 412 711.5999755859375 L 414.70001220703125 715.2999877929688 L 415.8999938964844 720.2999877929688 L 413.8999938964844 720.9000244140625 L 407.6000061035156 716 L 411.29998779296875 720.2999877929688 L 410.79998779296875 720.5 L 398.1000061035156 709.5 Z" fill="#FFF197" transform="matrix(0.7914552688598632, 0, 0, 0.7914552688598632, -16.813212942974246, -40.72523336369436)"/><path fill="#F8DB94" d="M386.6,694l9.7-34.7c0,0-44,33.4-26.5,55.2c17.5,21.8,25.4-2.1,25.4-2.1l4.7,2.1l3.2-7.4L386.6,694z" transform="matrix(0.7914552688598632, 0, 0, 0.7914552688598632, -16.813212942974246, -40.72523336369436)"/><path fill="#3F2524" d="M402.8,879.4l9.5,4.6l-3.4,12.9l10.4,11.6c0,0,9.3,1.1,9.7,3.6l-13.9,1.3l-19.4-13.4L402.8,879.4z" transform="matrix(0.7914552688598632, 0, 0, 0.7914552688598632, -16.813212942974246, -40.72523336369436)"/><path d="M 397.1000061035156 893.0999755859375 L 397.1000061035156 875.0999755859375 L 383.70001220703125 876.5999755859375 L 387.29998779296875 899 L 379.70001220703125 916.5999755859375 L 401.8999938964844 915.5999755859375 L 398.29998779296875 909 Z" fill="#3F2524" transform="matrix(0.7914552688598632, 0, 0, 0.7914552688598632, -16.813212942974246, -40.72523336369436)"/><path fill="#6A4542" d="M387.8,719.8c-4.4,1.9,1.1-13.5,1.1-13.5l-12.3-1.5l3.8-6l-8.9,1.5l10.3-5.2l14.6-35.8&#10;&#9;&#9;&#9;&#9;c0,0-44,33.4-26.5,55.2c17.5,21.8,25.4-2.1,25.4-2.1C395.1,712.3,392.2,718,387.8,719.8z" transform="matrix(0.7914552688598632, 0, 0, 0.7914552688598632, -16.813212942974246, -40.72523336369436)"/><path d="M 448.6000061035156 694.5999755859375 L 452.70001220703125 698.4000244140625 L 451.8999938964844 702.9000244140625 L 444.3999938964844 713.4000244140625 L 443.70001220703125 711.5999755859375 L 447 704.7000122070312 L 446.20001220703125 699 L 446.5 699 L 448.20001220703125 703.4000244140625 L 448.8999938964844 699.5 L 448.29998779296875 696.4000244140625 Z" fill="#FFF197" transform="matrix(0.7914552688598632, 0, 0, 0.7914552688598632, -16.813212942974246, -40.72523336369436)"/><path fill="#F8DB94" d="M187.8,804.7c0,0,20.7-39.3,46.1-14.9l-4.2,14.9l21,90.8l-18.1,9.5l-27.9-21.1l-9.9,19.2&#10;&#9;&#9;&#9;C194.8,903.2,161.5,866,187.8,804.7z" transform="matrix(0.7914552688598632, 0, 0, 0.7914552688598632, -16.813212942974246, -40.72523336369436)"/><path fill="#6A4542" d="M221.7,872.3l-25.7-3.3l30.3-21.3v-15.9l-22.2,20l23.6-30c0,0-13.2-19.3-24-35.4&#10;&#9;&#9;&#9;c-9.7,6.7-15.9,18.4-15.9,18.4c-26.3,61.3,7,98.4,7,98.4l9.9-19.2l27.9,21.1l18.1-9.5l-1.4-6L221.7,872.3z" transform="matrix(0.7914552688598632, 0, 0, 0.7914552688598632, -16.813212942974246, -40.72523336369436)"/><path fill="#F8DB94" d="M208.3,775.9c0,0,5.8-15.1,18.9-12.4l8,13.4c0,0-0.8,3.1,0.2,5.3s6.6,6.5,6.6,6.5l-0.9,1.1&#10;&#9;&#9;&#9;c0,0-4.9-1.1-5.1,0s-2.5,7.7-2.5,7.7l-4.8-0.2c0,0-4.8,6.7-7,6.1C219.5,802.7,208.3,775.9,208.3,775.9z" transform="matrix(0.7914552688598632, 0, 0, 0.7914552688598632, -16.813212942974246, -40.72523336369436)"/><path d="M 226.1999969482422 783 L 228.5 780.9000244140625 L 231.89999389648438 779.2000122070312 L 231.6999969482422 780.5999755859375 L 229 781.0999755859375 L 226.3000030517578 783.5 Z" fill="#6A4542" transform="matrix(0.7914552688598632, 0, 0, 0.7914552688598632, -16.813212942974246, -40.72523336369436)"/><path d="M 227.60000610351562 785.5 L 229.60000610351562 785.0999755859375 L 229.6999969482422 784.4000244140625 Z" fill="#6A4542" transform="matrix(0.7914552688598632, 0, 0, 0.7914552688598632, -16.813212942974246, -40.72523336369436)"/><path fill="#6A4542" d="M219.8,791.5c0,0-5.3-1.6-4.4-4.2c0.9-2.6,5.4,1.5,5.4,1.5s-4.2-6.6-2.6-9.6l-3.5-7l14.6-3&#10;&#9;&#9;&#9;c0,0,3.2-5.6,2.5-9.5c-0.7-3.9-6.3-2.5-6.3-2.5l3.6,2.1c0,0-7.1-2.3-10.6,0.6c-3.4,2.9-13.3,16-13.3,16l8.6,14.5L219.8,791.5z" transform="matrix(0.7914552688598632, 0, 0, 0.7914552688598632, -16.813212942974246, -40.72523336369436)"/><path fill="#F8DB94" d="M272.5,819.7c-2.2-2-9.9,4.6-18.8,13.4c-0.6-7-1.6-12-3.1-13.1c-6.3-4.9-46,64-46,64l-8.1,15.6l24.9,1&#10;&#9;&#9;&#9;l0.5-1h13.6L247,879l0.7,26l6.4-5.6c0,0,0.6-16.5,0.7-34.5l14.2-25.9l11.8,56.7l3.9-1.1C284.7,894.5,278.2,824.9,272.5,819.7z" transform="matrix(0.7914552688598632, 0, 0, 0.7914552688598632, -16.813212942974246, -40.72523336369436)"/><path d="M 243.89999389648438 903.5 L 254 899.4000244140625 L 255.10000610351562 904.5 L 267.3999938964844 913.5 L 273.6000061035156 915.7000122070312 L 265.5 918.9000244140625 L 246.10000610351562 914.2000122070312 L 245.8000030517578 906.7999877929688 Z" fill="#3F2524" transform="matrix(0.7914552688598632, 0, 0, 0.7914552688598632, -16.813212942974246, -40.72523336369436)"/><path d="M 275.70001220703125 894.9000244140625 L 285.8999938964844 890.7000122070312 L 286.8999938964844 895.9000244140625 L 299.20001220703125 904.9000244140625 L 305.3999938964844 907.0999755859375 L 297.3999938964844 910.2999877929688 L 277.8999938964844 905.5999755859375 L 277.70001220703125 898.2000122070312 Z" fill="#3F2524" transform="matrix(0.7914552688598632, 0, 0, 0.7914552688598632, -16.813212942974246, -40.72523336369436)"/><path fill="#577483" d="M247,879l0.7,26l2.7-2.4l-1.9-82.4c-10.4,5.7-43.8,63.7-43.8,63.7l-8.1,15.6l24.9,1l0.5-1l23.8-34.5&#10;&#9;&#9;&#9;&#9;L247,879z" transform="matrix(0.7914552688598632, 0, 0, 0.7914552688598632, -16.813212942974246, -40.72523336369436)"/><path fill="#577483" d="M268.6,820.4c-3.6,2-9,6.8-14.9,12.7l1,31.7l14.2-25.9l11.8,56.7l3.9-1.1c0,0-1.5-15.7-3.6-32.7&#10;&#9;&#9;&#9;&#9;L268.6,820.4z" transform="matrix(0.7914552688598632, 0, 0, 0.7914552688598632, -16.813212942974246, -40.72523336369436)"/>
</svg>